HIERARCHY
ROOT Hips
{
	OFFSET 0.000000 0.000000 0.000000
	CHANNELS 6 Xposition Yposition Zposition Zrotation Yrotation Xrotation 
	JOINT LHipJoint
	{
		OFFSET 0.069520 -0.091406 -0.006815
		CHANNELS 3 Zrotation Yrotation Xrotation
		JOINT LeftLeg
		{
			OFFSET 0.034277 -0.375199 -0.004496
			CHANNELS 3 Zrotation Yrotation Xrotation
			JOINT LeftFoot
			{
				OFFSET -0.013596 -0.397961 -0.043693
				CHANNELS 3 Zrotation Yrotation Xrotation
				JOINT LeftToeBase
				{
					OFFSET 0.026358 -0.055791 0.119288
					CHANNELS 3 Zrotation Yrotation Xrotation
					End Site
					{
						OFFSET 0.000000 0.000000 0.000000
					}
				}
			}
		}
	}
	JOINT RHipJoint
	{
		OFFSET -0.067670 -0.090522 -0.004320
		CHANNELS 3 Zrotation Yrotation Xrotation
		JOINT RightLeg
		{
			OFFSET -0.038290 -0.382569 -0.008850
			CHANNELS 3 Zrotation Yrotation Xrotation
			JOINT RightFoot
			{
				OFFSET 0.015774 -0.398415 -0.042312
				CHANNELS 3 Zrotation Yrotation Xrotation
				JOINT RightToeBase
				{
					OFFSET -0.025372 -0.048144 0.123348
					CHANNELS 3 Zrotation Yrotation Xrotation
					End Site
					{
						OFFSET 0.000000 0.000000 0.000000
					}
				}
			}
		}
	}
	JOINT LowerBack
	{
		OFFSET -0.002533 0.108963 -0.026696
		CHANNELS 3 Zrotation Yrotation Xrotation
		JOINT Spine1
		{
			OFFSET 0.005487 0.135180 0.001092
			CHANNELS 3 Zrotation Yrotation Xrotation
			JOINT Spine2
			{
				OFFSET 0.001457 0.052922 0.025425
				CHANNELS 3 Zrotation Yrotation Xrotation
				JOINT Neck
				{
					OFFSET -0.002778 0.213870 -0.042857
					CHANNELS 3 Zrotation Yrotation Xrotation
					JOINT Neck1
					{
						OFFSET 0.005152 0.064970 0.051349
						CHANNELS 3 Zrotation Yrotation Xrotation
						End Site
						{
							OFFSET 0.000000 0.000000 0.000000
						}
					}
				}
				JOINT LeftShoulder
				{
					OFFSET 0.078845 0.121749 -0.034090
					CHANNELS 3 Zrotation Yrotation Xrotation
					JOINT LeftArm
					{
						OFFSET 0.090977 0.030469 -0.008868
						CHANNELS 3 Zrotation Yrotation Xrotation
						JOINT LeftForeArm
						{
							OFFSET 0.259612 -0.012772 -0.027456
							CHANNELS 3 Zrotation Yrotation Xrotation
							JOINT LeftHand
							{
								OFFSET 0.249234 0.008986 -0.001171
								CHANNELS 3 Zrotation Yrotation Xrotation
								End Site
								{
									OFFSET 0.000000 0.000000 0.000000
								}
							}
						}
					}
				}
				JOINT RightShoulder
				{
					OFFSET -0.081759 0.118833 -0.038615
					CHANNELS 3 Zrotation Yrotation Xrotation
					JOINT RightArm
					{
						OFFSET -0.096012 0.032551 -0.009143
						CHANNELS 3 Zrotation Yrotation Xrotation
						JOINT RightForeArm
						{
							OFFSET -0.253742 -0.013329 -0.021401
							CHANNELS 3 Zrotation Yrotation Xrotation
							JOINT RightHand
							{
								OFFSET -0.255298 0.007772 -0.005559
								CHANNELS 3 Zrotation Yrotation Xrotation
								End Site
								{
									OFFSET 0.000000 0.000000 0.000000
								}
							}
						}
					}
				}
			}
		}
	}
}
MOTION
Frames: 5
Frame Time: 0.050000
0.000000 0.953755 0.000000 -0.473815 -5.578193 -0.514655 4.382219 -0.496547 -9.956935 -0.781020 -0.161440 16.455754 1.923108 5.384866 4.550510 0.000000 0.000000 0.000000 -0.690115 0.541881 -5.596154 3.459369 -0.146442 10.384980 -7.057055 -17.745901 5.084445 0.000000 0.000000 0.000000 -0.575307 -0.167114 5.049670 -1.813833 0.831092 -5.132052 1.968516 3.013419 13.429956 -0.737186 1.419880 -13.374755 0.000000 0.000000 0.000000 -15.583856 9.589938 -6.010811 -37.162742 10.744492 -7.841346 -45.552958 -35.078888 16.803086 0.000000 0.000000 0.000000 10.878014 -4.097257 -2.725629 42.620311 -17.413442 -10.371616 42.967719 33.712466 14.161302 0.000000 0.000000 0.000000 
-0.000175 0.953811 0.000643 -0.894449 -5.513066 -0.215665 4.717196 -0.485532 -10.319593 -1.090773 -0.083579 16.973098 2.702538 6.523387 3.057646 0.000000 0.000000 0.000000 0.076171 0.516321 -5.217113 3.006111 -0.073175 10.081182 -7.194375 -17.926442 4.295870 0.000000 0.000000 0.000000 -0.182368 -0.191093 5.137615 -2.857050 1.295909 -4.091810 3.403999 2.908795 12.569666 -2.238247 2.471805 -15.609577 0.000000 0.000000 0.000000 -13.606848 10.081214 -5.867043 -37.384621 12.040214 -8.178950 -48.571105 -34.544825 17.696353 0.000000 0.000000 0.000000 8.749016 -4.219053 -2.541721 42.622635 -18.827252 -10.754000 45.376835 32.026681 14.054329 0.000000 0.000000 0.000000 
0.000217 0.952778 0.000141 -0.655537 -4.555974 0.860855 4.216346 -0.622948 -11.722262 -1.227363 -0.084081 17.249932 2.401180 5.926332 2.937918 0.000000 0.000000 0.000000 0.012804 0.648510 -6.507093 2.932789 -0.072767 10.251199 -8.092068 -19.760435 3.663883 0.000000 0.000000 0.000000 0.019356 -0.192790 4.848692 -2.153689 0.991486 -4.733596 1.916701 3.891026 13.531412 -0.838361 1.814511 -16.407992 0.000000 0.000000 0.000000 -12.318247 9.433750 -5.538118 -37.678281 10.874417 -7.963974 -49.443321 -32.349363 16.512554 0.000000 0.000000 0.000000 8.935937 -3.951136 -2.266750 42.674350 -19.910390 -11.119036 46.072561 32.023735 14.586754 0.000000 0.000000 0.000000 
0.001105 0.952349 -0.001319 -0.595208 -4.387632 1.256778 4.243542 -0.729152 -13.993638 -1.831264 0.076372 19.800895 2.220159 5.551947 2.866255 0.000000 0.000000 0.000000 0.130221 0.831126 -8.221309 3.331074 -0.124326 11.401067 -8.937236 -21.541181 4.015401 0.000000 0.000000 0.000000 -0.040641 -0.230909 5.981794 -2.659597 1.217804 -4.123659 2.638895 3.495172 13.077319 -2.443086 2.776887 -16.466387 0.000000 0.000000 0.000000 -13.126010 9.006443 -5.447837 -36.695997 10.850131 -7.692965 -49.814020 -30.697457 15.794763 0.000000 0.000000 0.000000 8.087044 -3.121564 -1.866187 42.322365 -20.007540 -11.003023 45.892799 31.112995 13.965798 0.000000 0.000000 0.000000 
0.002629 0.949451 -0.003771 -0.620975 -4.334002 1.720229 4.023434 -0.866198 -16.352235 -2.267872 0.222244 22.582174 2.713926 6.272466 1.901690 0.000000 0.000000 0.000000 0.114481 1.024298 -10.040787 4.031374 -0.223853 13.647261 -9.450555 -22.629104 2.233002 0.000000 0.000000 0.000000 -0.009696 -0.302034 7.926455 -2.540462 1.169133 -3.775827 2.548108 3.567190 12.872185 -2.628337 2.922861 -17.092307 0.000000 0.000000 0.000000 -12.680633 7.257942 -4.556544 -36.856840 10.448124 -7.612551 -49.948354 -28.568093 14.663132 0.000000 0.000000 0.000000 7.709327 -2.391291 -1.510877 41.745875 -19.428090 -10.620268 46.475144 30.023939 13.594429 0.000000 0.000000 0.000000 
